# AST/ASF file generated using VICON BodyLanguage
# -----------------------------------------------
:version 1.10
:name VICON
:units
  mass 1.0
  length 0.45
  angle deg
:documentation
   .ast/.asf automatically generated from VICON data using
   VICON BodyBuilder and BodyLanguage model FoxedUp or BRILLIANT.MOD
:root
   order TX TY TZ RX RY RZ
   axis XYZ
   position 0 0 0  
   orientation 0 0 0 
:bonedata
  begin
     id 1 
     name lhipjoint
     direction 0.570549 -0.739093 0.358072 
     length 2.41801 
     axis 0 0 0  XYZ
  end
  begin
     id 2 
     name lfemur
     direction 0.34202 -0.939693 0  
     length 7.44434  
     axis 0 0 20  XYZ
    dof rx ry rz
    limits (-160.0 20.0)
           (-70.0 70.0)
           (-60.0 70.0)
  end
  begin
     id 3 
     name ltibia
     direction 0.34202 -0.939693 0   
     length 7.60047   
     axis 0 0 20   XYZ
    dof rx
    limits (-10.0 170.0)
  end
  begin
     id 4 
     name lfoot
     direction 0.0909041 -0.249757 0.964032   
     length 2.03437   
     axis -90 7.62852e-016 20   XYZ
    dof rx rz
    limits (-45.0 90.0)
           (-70.0 20.0)
  end
  begin
     id 5 
     name ltoes
     direction 1.53547e-011 -4.2174e-011 1   
     length 1.02054   
     axis -90 7.62852e-016 20   XYZ
    dof rx
    limits (-90.0 20.0)
  end
  begin
     id 6 
     name rhipjoint
     direction -0.558096 -0.746754 0.361784   
     length 2.3932  
     axis 0 0 0  XYZ 
  end
  begin
     id 7 
     name rfemur
     direction -0.34202 -0.939693 0   
     length 7.3886   
     axis 0 0 -20   XYZ
    dof rx ry rz
    limits (-160.0 20.0)
           (-70.0 70.0)
           (-70.0 60.0)
  end
  begin
     id 8 
     name rtibia
     direction -0.34202 -0.939693 0   
     length 7.4839   
     axis 0 0 -20   XYZ
    dof rx
    limits (-10.0 170.0)
 end
 begin
     id 9 
     name rfoot
     direction -0.114619 -0.314914 0.942174   
     length 2.25127  
     axis -90 -7.62852e-016 -20   XYZ
    dof rx rz
    limits (-45.0 90.0)
           (-20.0 70.0)
  end
  begin
     id 10 
     name rtoes
     direction -1.53518e-011 -4.21881e-011 1   
     length 1.11821   
     axis -90 -7.62852e-016 -20   XYZ
    dof rx
    limits (-90.0 20.0)
  end
  begin
     id 11 
     name lowerback
     direction -0.00902269 0.996426 -0.0839821   
     length 2.25052   
     axis 0 0 0   XYZ
    dof rx ry rz
    limits (-20.0 45.0)
           (-30.0 30.0)
           (-30.0 30.0)
  end
  begin
     id 12 
     name upperback
     direction 0.0370973 0.999169 -0.0168941   
     length 2.24876   
     axis 0 0 0   XYZ
    dof rx ry rz
    limits (-20.0 45.0)
           (-30.0 30.0)
           (-30.0 30.0)
  end
  begin
     id 13 
     name thorax
     direction 0.0402726 0.998931 0.0227027   
     length 2.26408   
     axis 0 0 0   XYZ
    dof rx ry rz
    limits (-20.0 45.0)
           (-30.0 30.0)
           (-30.0 30.0)
  end
  begin
     id 14 
     name lowerneck
     direction -0.0733697 0.98508 0.155675   
     length 1.58204   
     axis 0 0 0   XYZ
    dof rx ry rz
    limits (-20.0 45.0)
           (-30.0 30.0)
           (-30.0 30.0)
  end
  begin
     id 15 
     name upperneck
     direction 0.0426554 0.993501 -0.105526   
     length 1.61222   
     axis 0 0 0   XYZ
    dof rx ry rz
    limits (-20.0 45.0)
           (-30.0 30.0)
           (-30.0 30.0)
  end
  begin
     id 16
     name head
     direction 0.020792 0.998384 -0.0528868  
     length 1.61527  
     axis 0 0 0   XYZ
    dof rx ry rz
    limits (-20.0 45.0)
           (-30.0 30.0)
           (-30.0 30.0)
  end
  begin
     id 17 
     name lclavicle
     direction 0.967109 0.155462 -0.201325  
     length 3.59357  
     axis 0 0 0   XYZ
    dof ry rz
    limits (-20.0 10.0)
           (0.0 20.0)
  end
  begin
     id 18 
     name lhumerus
     direction 1 -4.48968e-011 2.38195e-027   
     length 5.38154   
     axis 180 -30 -90   XYZ
    dof rx ry rz
    limits (-60.0 90.0)
           (-90.0 90.0)
           (-90.0 90.0)
  end
  begin
     id 19
     name lradius
     direction 1 -4.48961e-011 4.85371e-027   
     length 3.33312   
     axis 180 -30 -90   XYZ
    dof rx
    limits (-10.0 170.0)
  end
  begin
     id 20
     name lwrist
     direction 1 -4.48961e-011 4.76515e-027   
     length 1.66656   
     axis -3.27502e-015 90 90   XYZ
    dof ry
    limits (-180.0 0.0)
 end
  begin
     id 21 
     name lhand
     direction 1 -4.48951e-011 9.53074e-027   
     length 0.710789   
     axis -6.08098e-015 90 90   XYZ
    dof rx rz
    limits (-90.0 90.0)
           (-45.0 45.0)
  end
  begin
     id 22 
     name lfingers
     direction 1 -4.48953e-011 1.90613e-026   
     length 0.573057   
     axis -1.21619e-014 90 90   XYZ
    dof rx
    limits (0.0 90.0)
  end
  begin
     id 23
     name lthumb
     direction 0.707107 -6.34973e-011 0.707107   
     length 0.822798   
     axis -90 45 -9.86923e-015   XYZ
    dof rx rz
    limits (-45.0 45.0)
           (-45.0 45.0)
  end
  begin
     id 24 
     name rclavicle
     direction -0.9585 0.265289 -0.104398   
     length 3.42039  
     axis 0 0 0   XYZ 
    dof ry rz
    limits (-10.0 20.0)
           (-20.0 0.0)
  end
  begin
     id 25 
     name rhumerus
     direction -1 -4.48977e-011 2.21478e-027  
     length 5.16954   
     axis 180 30 90   XYZ
    dof rx ry rz
    limits (-90.0 60.0)
           (-90.0 90.0)
           (-90.0 90.0)
  end
  begin
     id 26 
     name rradius
     direction -1 -4.48967e-011 5.63677e-027   
     length 3.38287   
     axis 180 30 90   XYZ
    dof rx
    limits (-10.0 170.0)
  end
  begin
     id 27 
     name rwrist
     direction -1 -4.48967e-011 4.76501e-027   
     length 1.69144   
     axis -3.27502e-015 -90 -90   XYZ
    dof ry
    limits (-180.0 0.0)
  end
  begin
     id 28
     name rhand
     direction -1 -4.48902e-011 9.53292e-027   
     length 0.817967   
     axis -6.08098e-015 -90 -90   XYZ
    dof rx rz
    limits (-90.0 90.0)
           (-45.0 45.0)
  end
  begin
     id 29
     name rfingers
     direction -1 -4.49012e-011 1.90561e-026   
     length 0.659466   
     axis -1.21619e-014 -90 -90   XYZ
    dof rx
    limits (0.0 90.0)
  end
  begin
     id 30
     name rthumb
     direction -0.707107 -6.34944e-011 0.707107   
     length 0.946865   
     axis -90 -45 9.86923e-015   XYZ
    dof rx rz
    limits (-45.0 45.0)
           (-45.0 45.0)
  end
:hierarchy
  begin
    root lhipjoint rhipjoint lowerback
    lhipjoint lfemur
    lfemur ltibia
    ltibia lfoot
    lfoot ltoes
    rhipjoint rfemur
    rfemur rtibia
    rtibia rfoot
    rfoot rtoes
    lowerback upperback
    upperback thorax
    thorax lowerneck lclavicle rclavicle
    lowerneck upperneck
    upperneck head
    lclavicle lhumerus
    lhumerus lradius
    lradius lwrist
    lwrist lhand lthumb
    lhand lfingers
    rclavicle rhumerus
    rhumerus rradius
    rradius rwrist
    rwrist rhand rthumb
    rhand rfingers
  end

#!OML:ASF F:\twosubjects\two\wednesday\Session 1\Justin1.ASF
:FULLY-SPECIFIED
:DEGREES
33
root 3.64922 17.1485 -12.1771 0.502219 6.71151 6.50715
lowerback 1.04115 -2.93567 -7.17982
upperback 0.936135 -3.96683 1.22331
thorax 0.961291 -2.05044 5.27692
lowerneck -19.0143 -2.44823 -11.7648
upperneck 20.9541 -1.77745 7.74956
head 9.98483 -0.864849 4.46449
rclavicle -1.73937e-014 1.27222e-014
rhumerus -47.0656 -22.248 -68.927
rradius 20.2479
rwrist -3.19891
rhand -13.4157 15.0512
rfingers 7.12502
rthumb 12.6924 -14.5431
lclavicle -1.73937e-014 1.27222e-014
lhumerus -0.252935 14.82 85.6814
lradius 36.1827
lwrist -0.761219
lhand 0.146009 38.5697
lfingers 7.12502
lthumb 25.7302 66.8502
rfemur -29.6354 -0.565298 12.5104
rtibia 12.7935
rfoot -13.1104 -14.8772
rtoes -12.7152
lfemur 10.1143 -4.01214 -28.6375
ltibia 17.6471
lfoot -15.0619 -14.0929
ltoes 0.471391
34
root 3.63768 17.1215 -12.0005 0.679565 6.42176 6.4734
lowerback 1.00835 -2.97116 -7.15478
upperback 0.846002 -4.01415 1.21056
thorax 0.890318 -2.06848 5.24995
lowerneck -18.931 -2.27828 -11.2217
upperneck 20.8211 -1.5764 7.20694
head 9.89117 -0.78959 4.19938
rclavicle -5.98342e-014 -1.59028e-014
rhumerus -47.9199 -22.47 -68.31
rradius 20.0337
rwrist -2.41776
rhand -12.8517 15.6641
rfingers 7.12502
rthumb 13.2361 -13.8957
lclavicle -5.98342e-014 -1.59028e-014
lhumerus 0.220656 14.4674 85.1674
lradius 36.6675
lwrist 0.21912
lhand -0.668159 37.3912
lfingers 7.12502
lthumb 24.9502 65.7823
rfemur -30.1216 -0.856176 13.0453
rtibia 13.1242
rfoot -12.7662 -14.2988
rtoes -10.7278
lfemur 10.9036 -4.80338 -28.6017
ltibia 17.3066
lfoot -13.7935 -14.4248
ltoes 6.72834
35
root 3.63342 17.1057 -11.807 0.577658 6.30409 6.93461
lowerback 1.17965 -2.97826 -7.56138
upperback 0.907206 -4.03714 1.05339
thorax 0.878584 -2.08333 5.32169
lowerneck -19.2862 -2.26487 -11.358
upperneck 21.1636 -1.5541 7.48749
head 10.0792 -0.759104 4.33996
rclavicle -7.65321e-015 -7.95139e-016
rhumerus -48.6971 -22.6764 -67.7385
rradius 19.7907
rwrist -1.9314
rhand -12.6646 15.5759
rfingers 7.12502
rthumb 13.4165 -13.9721
lclavicle -7.65321e-015 -7.95139e-016
lhumerus 0.914259 14.272 84.9562
lradius 36.9971
lwrist 0.75172
lhand -1.2441 36.6133
lfingers 7.12502
lthumb 24.3982 65.0799
rfemur -30.3803 -2.16887 13.3672
rtibia 14.1144
rfoot -12.6348 -12.8173
rtoes -9.42764
lfemur 12.03 -4.79462 -29.0884
ltibia 16.7903
lfoot -13.2282 -14.5776
ltoes 6.38078
36
root 3.62433 17.1084 -11.6095 0.325908 6.25947 7.3079
lowerback 1.41183 -2.94008 -7.99711
upperback 1.06963 -4.00359 1.01044
thorax 0.940202 -2.07743 5.52969
lowerneck -19.772 -2.36645 -11.7226
upperneck 21.4729 -1.61038 7.79252
head 10.293 -0.777908 4.51867
rclavicle -7.10655e-015 1.74931e-014
rhumerus -49.3615 -22.9991 -66.9905
rradius 19.4928
rwrist -1.47991
rhand -12.456 15.2406
rfingers 7.12502
rthumb 13.6175 -14.294
lclavicle -7.10655e-015 1.74931e-014
lhumerus 1.55361 14.45 85.1363
lradius 37.5902
lwrist 0.483943
lhand -0.841279 36.8341
lfingers 7.12502
lthumb 24.7843 65.2482
rfemur -30.4789 -3.48196 13.7423
rtibia 15.3873
rfoot -12.5053 -11.2312
rtoes -9.31965
lfemur 13.1327 -3.88176 -29.3336
ltibia 16.2212
lfoot -13.2567 -14.6169
ltoes -3.02581
37
root 3.60965 17.0974 -11.4205 0.169422 6.20782 7.56748
lowerback 1.665 -2.91829 -8.34258
upperback 1.1654 -3.99699 0.99865
thorax 0.920814 -2.07948 5.72284
lowerneck -20.1017 -2.36995 -11.4575
upperneck 21.4928 -1.55746 7.3929
head 10.3518 -0.774654 4.3376
rclavicle 1.92821e-014 2.22639e-014
rhumerus -49.9681 -23.3135 -66.2638
rradius 19.2398
rwrist -0.949995
rhand -12.1667 15.5225
rfingers 7.12502
rthumb 13.8964 -13.9931
lclavicle 1.92821e-014 2.22639e-014
lhumerus 1.91532 14.5402 85.1927
lradius 38.3612
lwrist 0.415283
lhand -0.641934 37.0662
lfingers 7.12502
lthumb 24.9754 65.4539
rfemur -30.4941 -3.99571 13.8796
rtibia 16.387
rfoot -12.4358 -10.0915
rtoes -7.79355
lfemur 14.015 -3.33441 -29.4472
ltibia 16.0461
lfoot -13.1386 -14.6748
ltoes -9.99415
38
root 3.59652 17.0933 -11.2254 0.203004 6.22043 7.69789
lowerback 1.72676 -2.92429 -8.38689
upperback 1.08402 -4.01416 0.957261
thorax 0.804254 -2.08035 5.71079
lowerneck -19.7412 -2.31404 -11.2753
upperneck 21.144 -1.50913 7.15289
head 10.1507 -0.763983 4.2128
rclavicle 1.27719e-014 -3.18055e-014
rhumerus -50.846 -23.5468 -65.5083
rradius 19.1632
rwrist -0.565367
rhand -12.1418 15.3566
rfingers 7.12502
rthumb 13.9204 -14.1575
lclavicle 1.27719e-014 -3.18055e-014
lhumerus 2.05556 14.1203 84.9723
lradius 38.8554
lwrist 0.788727
lhand -0.681879 37.055
lfingers 7.12502
lthumb 24.9371 65.448
rfemur -30.5173 -3.88137 13.8326
rtibia 17.2109
rfoot -12.5141 -9.21585
rtoes -6.09317
lfemur 14.5508 -3.42084 -29.5161
ltibia 16.1291
lfoot -12.5776 -14.8055
ltoes -11.8654
39
root 3.58446 17.0909 -11.0197 0.118774 6.22678 7.61999
lowerback 1.73816 -2.92302 -8.27677
upperback 1.07201 -4.01273 1.00754
thorax 0.780908 -2.0778 5.70277
lowerneck -19.1751 -2.28075 -11.4128
upperneck 20.6226 -1.4808 7.18439
head 9.85806 -0.755789 4.2324
rclavicle -2.45002e-014 9.54166e-015
rhumerus -51.6331 -23.7366 -64.7561
rradius 19.0676
rwrist -0.272422
rhand -12.2264 14.8255
rfingers 7.12502
rthumb 13.8388 -14.6941
lclavicle -2.45002e-014 9.54166e-015
lhumerus 2.20967 13.6944 84.8072
lradius 39.3698
lwrist 1.23131
lhand -0.110993 37.4516
lfingers 7.12502
lthumb 25.4841 65.7676
rfemur -30.3268 -3.65356 14.0173
rtibia 18.0291
rfoot -12.3454 -8.23158
rtoes -7.76776
lfemur 15.1843 -3.45622 -29.3551
ltibia 16.1867
lfoot -11.6343 -15.0851
ltoes -12.0886
40
root 3.57278 17.0729 -10.8139 0.00125682 6.2952 7.48324
lowerback 1.75281 -3.02064 -8.22928
upperback 1.17352 -4.14027 1.11703
thorax 0.903769 -2.15087 5.78591
lowerneck -19.277 -2.21008 -11.3334
upperneck 20.4102 -1.34157 6.99496
head 9.78559 -0.701065 4.16453
rclavicle -7.39479e-014 1.03368e-014
rhumerus -52.0322 -23.9988 -64.1135
rradius 18.8141
rwrist 0.215832
rhand -12.4669 14.7063
rfingers 7.12502
rthumb 13.607 -14.829
lclavicle -7.39479e-014 1.03368e-014
lhumerus 2.37171 13.7652 84.7235
lradius 40.2209
lwrist 1.44007
lhand -0.586455 36.7409
lfingers 7.12502
lthumb 25.0285 65.1211
rfemur -29.9993 -3.54125 14.308
rtibia 18.6991
rfoot -11.9866 -7.05088
rtoes -11.0981
lfemur 15.9045 -3.52075 -29.1074
ltibia 16.37
lfoot -10.7854 -15.3589
ltoes -13.1585
41
root 3.5588 17.0645 -10.6063 0.121713 6.50253 7.47618
lowerback 1.57368 -3.18177 -8.2724
upperback 1.16756 -4.34048 1.17929
thorax 1.03889 -2.2576 5.86056
lowerneck -19.5313 -2.11919 -11.3438
upperneck 20.4416 -1.16546 6.92955
head 9.82512 -0.625024 4.16964
rclavicle 1.54058e-015 -1.11319e-014
rhumerus -52.517 -24.3218 -63.4181
rradius 18.5857
rwrist 0.723179
rhand -12.4188 14.6062
rfingers 7.12502
rthumb 13.6534 -14.926
lclavicle 1.54058e-015 -1.11319e-014
lhumerus 2.50729 13.7121 84.521
lradius 40.7353
lwrist 1.67718
lhand -1.76064 35.6734
lfingers 7.12502
lthumb 23.903 64.2058
rfemur -29.8001 -3.35524 14.3317
rtibia 19.2581
rfoot -11.4268 -5.85203
rtoes -12.2168
lfemur 16.3401 -3.92426 -29.0415
ltibia 16.651
lfoot -10.0019 -15.5065
ltoes -14.7752
42
root 3.54562 17.078 -10.3915 0.259623 6.73002 7.32813
lowerback 1.33231 -3.26476 -8.15434
upperback 1.07923 -4.43329 1.34809
thorax 1.10203 -2.30424 5.9568
lowerneck -19.5316 -2.12476 -11.7534
upperneck 20.4856 -1.08668 7.08914
head 9.83657 -0.603366 4.30788
rclavicle -3.64273e-014 -3.97569e-015
rhumerus -53.1681 -24.2777 -62.807
rradius 18.7093
rwrist 0.638096
rhand -12.0338 14.3287
rfingers 7.12502
rthumb 14.0245 -15.1782
lclavicle -3.64273e-014 -3.97569e-015
lhumerus 2.62043 13.676 84.5747
lradius 40.8984
lwrist 1.70759
lhand -1.1167 36.9874
lfingers 7.12502
lthumb 24.5203 65.4375
rfemur -29.5182 -3.24299 14.5154
rtibia 19.7188
rfoot -10.28 -4.78242
rtoes -12.6998
lfemur 16.6311 -4.33951 -28.8362
ltibia 17.0121
lfoot -9.03151 -15.5938
ltoes -16.5219
